<svg width="21.798340" height="20.000000" viewBox="0 0 21.7983 20" fill="none" xmlns="http://www.w3.org/2000/svg" xmlns:xlink="http://www.w3.org/1999/xlink">
	<desc>
			Created with Pixso.
	</desc>
	<defs/>
	<path id="Vector" d="M2 1C2 0.44 1.55 0 1 0C0.44 0 0 0.44 0 1L0 7C0 7.55 0.44 8 1 8L7 8C7.55 8 8 7.55 8 7C8 6.44 7.55 6 7 6L3.96 6C5.35 3.6 7.93 2 10.89 2C14.38 2 17.34 4.22 18.44 7.33C18.62 7.85 19.2 8.12 19.72 7.94C20.24 7.75 20.51 7.18 20.33 6.66C18.95 2.78 15.25 0 10.89 0C7.02 0 3.65 2.2 2 5.43L2 1ZM3.35 12.66C3.16 12.14 2.59 11.87 2.07 12.05C1.55 12.24 1.28 12.81 1.46 13.33C2.83 17.21 6.54 20 10.89 20C14.77 20 18.14 17.79 19.79 14.56L19.79 19C19.79 19.55 20.24 20 20.79 20C21.35 20 21.79 19.55 21.79 19L21.79 13C21.79 12.44 21.35 12 20.79 12L14.79 12C14.24 12 13.79 12.44 13.79 13C13.79 13.55 14.24 14 14.79 14L17.82 14C16.44 16.39 13.85 18 10.89 18C7.41 18 4.45 15.77 3.35 12.66Z" fill="#424551" fill-opacity="1.000000" fill-rule="evenodd"/>
</svg>
