<svg width="136.000000" height="100.000000" viewBox="0 0 136 100" fill="none" xmlns="http://www.w3.org/2000/svg" xmlns:xlink="http://www.w3.org/1999/xlink">
	<desc>
			Created with Pixso.
	</desc>
	<defs/>
	<path id="Vector" d="M3.88 29.38C3.88 30.49 3.04 31.33 1.94 31.33C0.83 31.33 0 30.49 0 29.38C0 28.28 0.83 27.44 1.94 27.44C3.04 27.44 3.88 28.37 3.88 29.38Z" fill="#FFCF2D" fill-opacity="1.000000" fill-rule="nonzero"/>
	<path id="Vector" d="M20.41 29.38C20.41 30.49 19.58 31.33 18.47 31.33C17.36 31.33 16.53 30.49 16.53 29.38C16.53 28.28 17.36 27.44 18.47 27.44C19.49 27.44 20.41 28.37 20.41 29.38Z" fill="#FFCF2D" fill-opacity="1.000000" fill-rule="nonzero"/>
	<path id="Vector" d="M36.86 29.38C36.86 30.49 36.03 31.33 34.92 31.33C33.81 31.33 32.98 30.49 32.98 29.38C32.98 28.28 33.81 27.44 34.92 27.44C36.03 27.44 36.86 28.37 36.86 29.38Z" fill="#FFCF2D" fill-opacity="1.000000" fill-rule="nonzero"/>
	<path id="Vector" d="M53.4 29.38C53.4 30.49 52.57 31.33 51.46 31.33C50.35 31.33 49.52 30.49 49.52 29.38C49.52 28.28 50.35 27.44 51.46 27.44C52.57 27.44 53.4 28.37 53.4 29.38Z" fill="#FFCF2D" fill-opacity="1.000000" fill-rule="nonzero"/>
	<path id="Vector" d="M69.93 29.38C69.93 30.49 69.1 31.33 68 31.33C66.89 31.33 66.05 30.49 66.05 29.38C66.05 28.28 66.89 27.44 68 27.44C69.01 27.44 69.93 28.37 69.93 29.38Z" fill="#FFCF2D" fill-opacity="1.000000" fill-rule="nonzero"/>
	<path id="Vector" d="M86.47 29.38C86.47 30.49 85.64 31.33 84.53 31.33C83.42 31.33 82.59 30.49 82.59 29.38C82.59 28.28 83.42 27.44 84.53 27.44C85.64 27.44 86.47 28.37 86.47 29.38Z" fill="#FFCF2D" fill-opacity="1.000000" fill-rule="nonzero"/>
	<path id="Vector" d="M102.92 29.38C102.92 30.49 102.09 31.33 100.98 31.33C99.87 31.33 99.04 30.49 99.04 29.38C99.04 28.28 99.87 27.44 100.98 27.44C102.09 27.44 102.92 28.37 102.92 29.38Z" fill="#FFCF2D" fill-opacity="1.000000" fill-rule="nonzero"/>
	<path id="Vector" d="M119.46 29.38C119.46 30.49 118.63 31.33 117.52 31.33C116.41 31.33 115.58 30.49 115.58 29.38C115.58 28.28 116.41 27.44 117.52 27.44C118.63 27.44 119.46 28.37 119.46 29.38Z" fill="#FFCF2D" fill-opacity="1.000000" fill-rule="nonzero"/>
	<path id="Vector" d="M136 29.38C136 30.49 135.16 31.33 134.06 31.33C132.95 31.33 132.12 30.49 132.12 29.38C132.12 28.28 132.95 27.44 134.06 27.44C135.07 27.44 136 28.37 136 29.38Z" fill="#FFCF2D" fill-opacity="1.000000" fill-rule="nonzero"/>
	<path id="Vector" d="M3.88 43.16C3.88 44.26 3.04 45.1 1.94 45.1C0.83 45.1 0 44.26 0 43.16C0 42.05 0.83 41.21 1.94 41.21C3.04 41.21 3.88 42.05 3.88 43.16Z" fill="#FFCF2D" fill-opacity="1.000000" fill-rule="nonzero"/>
	<path id="Vector" d="M20.41 43.16C20.41 44.26 19.58 45.1 18.47 45.1C17.36 45.1 16.53 44.26 16.53 43.16C16.53 42.05 17.36 41.21 18.47 41.21C19.49 41.21 20.41 42.05 20.41 43.16Z" fill="#FFCF2D" fill-opacity="1.000000" fill-rule="nonzero"/>
	<path id="Vector" d="M36.86 43.16C36.86 44.26 36.03 45.1 34.92 45.1C33.81 45.1 32.98 44.26 32.98 43.16C32.98 42.05 33.81 41.21 34.92 41.21C36.03 41.21 36.86 42.05 36.86 43.16Z" fill="#FFCF2D" fill-opacity="1.000000" fill-rule="nonzero"/>
	<path id="Vector" d="M53.4 43.16C53.4 44.26 52.57 45.1 51.46 45.1C50.35 45.1 49.52 44.26 49.52 43.16C49.52 42.05 50.35 41.21 51.46 41.21C52.57 41.21 53.4 42.05 53.4 43.16Z" fill="#FFCF2D" fill-opacity="1.000000" fill-rule="nonzero"/>
	<path id="Vector" d="M69.93 43.16C69.93 44.26 69.1 45.1 68 45.1C66.89 45.1 66.05 44.26 66.05 43.16C66.05 42.05 66.89 41.21 68 41.21C69.01 41.21 69.93 42.05 69.93 43.16Z" fill="#FFCF2D" fill-opacity="1.000000" fill-rule="nonzero"/>
	<path id="Vector" d="M86.47 43.16C86.47 44.26 85.64 45.1 84.53 45.1C83.42 45.1 82.59 44.26 82.59 43.16C82.59 42.05 83.42 41.21 84.53 41.21C85.64 41.21 86.47 42.05 86.47 43.16Z" fill="#FFCF2D" fill-opacity="1.000000" fill-rule="nonzero"/>
	<path id="Vector" d="M102.92 43.16C102.92 44.26 102.09 45.1 100.98 45.1C99.87 45.1 99.04 44.26 99.04 43.16C99.04 42.05 99.87 41.21 100.98 41.21C102.09 41.21 102.92 42.05 102.92 43.16Z" fill="#FFCF2D" fill-opacity="1.000000" fill-rule="nonzero"/>
	<path id="Vector" d="M119.46 43.16C119.46 44.26 118.63 45.1 117.52 45.1C116.41 45.1 115.58 44.26 115.58 43.16C115.58 42.05 116.41 41.21 117.52 41.21C118.63 41.21 119.46 42.05 119.46 43.16Z" fill="#FFCF2D" fill-opacity="1.000000" fill-rule="nonzero"/>
	<path id="Vector" d="M136 43.16C136 44.26 135.16 45.1 134.06 45.1C132.95 45.1 132.12 44.26 132.12 43.16C132.12 42.05 132.95 41.21 134.06 41.21C135.07 41.21 136 42.05 136 43.16Z" fill="#FFCF2D" fill-opacity="1.000000" fill-rule="nonzero"/>
	<path id="Vector" d="M3.88 1.94C3.88 3.04 3.04 3.88 1.94 3.88C0.83 3.88 0 3.04 0 1.94C0 0.83 0.83 0 1.94 0C3.04 0 3.88 0.83 3.88 1.94Z" fill="#FFCF2D" fill-opacity="1.000000" fill-rule="nonzero"/>
	<path id="Vector" d="M20.41 1.94C20.41 3.04 19.58 3.88 18.47 3.88C17.36 3.88 16.53 3.04 16.53 1.94C16.53 0.83 17.36 0 18.47 0C19.49 0 20.41 0.83 20.41 1.94Z" fill="#FFCF2D" fill-opacity="1.000000" fill-rule="nonzero"/>
	<path id="Vector" d="M36.86 1.94C36.86 3.04 36.03 3.88 34.92 3.88C33.81 3.88 32.98 3.04 32.98 1.94C32.98 0.83 33.9 0 34.92 0C36.03 0 36.86 0.83 36.86 1.94Z" fill="#FFCF2D" fill-opacity="1.000000" fill-rule="nonzero"/>
	<path id="Vector" d="M53.4 1.94C53.4 3.04 52.57 3.88 51.46 3.88C50.35 3.88 49.52 3.04 49.52 1.94C49.52 0.83 50.44 0 51.46 0C52.47 0 53.4 0.83 53.4 1.94Z" fill="#FFCF2D" fill-opacity="1.000000" fill-rule="nonzero"/>
	<path id="Vector" d="M69.93 1.94C69.93 3.04 69.1 3.88 68 3.88C66.89 3.88 66.05 3.04 66.05 1.94C66.05 0.83 66.89 0 68 0C69.01 0 69.93 0.83 69.93 1.94Z" fill="#FFCF2D" fill-opacity="1.000000" fill-rule="nonzero"/>
	<path id="Vector" d="M86.47 1.94C86.47 3.04 85.64 3.88 84.53 3.88C83.42 3.88 82.59 3.04 82.59 1.94C82.59 0.83 83.42 0 84.53 0C85.64 0 86.47 0.83 86.47 1.94Z" fill="#FFCF2D" fill-opacity="1.000000" fill-rule="nonzero"/>
	<path id="Vector" d="M102.92 1.94C102.92 3.04 102.09 3.88 100.98 3.88C99.87 3.88 99.04 3.04 99.04 1.94C99.04 0.83 99.87 0 100.98 0C102.09 0 102.92 0.83 102.92 1.94Z" fill="#FFCF2D" fill-opacity="1.000000" fill-rule="nonzero"/>
	<path id="Vector" d="M119.46 1.94C119.46 3.04 118.63 3.88 117.52 3.88C116.41 3.88 115.58 3.04 115.58 1.94C115.58 0.83 116.41 0 117.52 0C118.63 0 119.46 0.83 119.46 1.94Z" fill="#FFCF2D" fill-opacity="1.000000" fill-rule="nonzero"/>
	<path id="Vector" d="M136 1.94C136 3.04 135.16 3.88 134.06 3.88C132.95 3.88 132.12 3.04 132.12 1.94C132.12 0.83 132.95 0 134.06 0C135.07 0 136 0.83 136 1.94Z" fill="#FFCF2D" fill-opacity="1.000000" fill-rule="nonzero"/>
	<path id="Vector" d="M3.88 15.71C3.88 16.82 3.04 17.65 1.94 17.65C0.83 17.65 0 16.72 0 15.71C0 14.6 0.83 13.77 1.94 13.77C3.04 13.77 3.88 14.6 3.88 15.71Z" fill="#FFCF2D" fill-opacity="1.000000" fill-rule="nonzero"/>
	<path id="Vector" d="M20.41 15.71C20.41 16.82 19.58 17.65 18.47 17.65C17.36 17.65 16.53 16.82 16.53 15.71C16.53 14.6 17.36 13.77 18.47 13.77C19.49 13.77 20.41 14.6 20.41 15.71Z" fill="#FFCF2D" fill-opacity="1.000000" fill-rule="nonzero"/>
	<path id="Vector" d="M36.86 15.71C36.86 16.82 36.03 17.65 34.92 17.65C33.81 17.65 32.98 16.82 32.98 15.71C32.98 14.6 33.81 13.77 34.92 13.77C36.03 13.77 36.86 14.6 36.86 15.71Z" fill="#FFCF2D" fill-opacity="1.000000" fill-rule="nonzero"/>
	<path id="Vector" d="M53.4 15.71C53.4 16.82 52.57 17.65 51.46 17.65C50.35 17.65 49.52 16.82 49.52 15.71C49.52 14.6 50.35 13.77 51.46 13.77C52.57 13.77 53.4 14.6 53.4 15.71Z" fill="#FFCF2D" fill-opacity="1.000000" fill-rule="nonzero"/>
	<path id="Vector" d="M69.93 15.71C69.93 16.82 69.1 17.65 68 17.65C66.89 17.65 66.05 16.82 66.05 15.71C66.05 14.6 66.89 13.77 68 13.77C69.01 13.77 69.93 14.6 69.93 15.71Z" fill="#FFCF2D" fill-opacity="1.000000" fill-rule="nonzero"/>
	<path id="Vector" d="M86.47 15.71C86.47 16.82 85.64 17.65 84.53 17.65C83.42 17.65 82.59 16.82 82.59 15.71C82.59 14.6 83.42 13.77 84.53 13.77C85.64 13.77 86.47 14.6 86.47 15.71Z" fill="#FFCF2D" fill-opacity="1.000000" fill-rule="nonzero"/>
	<path id="Vector" d="M102.92 15.71C102.92 16.82 102.09 17.65 100.98 17.65C99.87 17.65 99.04 16.82 99.04 15.71C99.04 14.6 99.87 13.77 100.98 13.77C102.09 13.77 102.92 14.6 102.92 15.71Z" fill="#FFCF2D" fill-opacity="1.000000" fill-rule="nonzero"/>
	<path id="Vector" d="M119.46 15.71C119.46 16.82 118.63 17.65 117.52 17.65C116.41 17.65 115.58 16.82 115.58 15.71C115.58 14.6 116.41 13.77 117.52 13.77C118.63 13.77 119.46 14.6 119.46 15.71Z" fill="#FFCF2D" fill-opacity="1.000000" fill-rule="nonzero"/>
	<path id="Vector" d="M136 15.71C136 16.82 135.16 17.65 134.06 17.65C132.95 17.65 132.12 16.82 132.12 15.71C132.12 14.6 132.95 13.77 134.06 13.77C135.07 13.77 136 14.6 136 15.71Z" fill="#FFCF2D" fill-opacity="1.000000" fill-rule="nonzero"/>
	<path id="Vector" d="M3.88 56.83C3.88 57.94 3.04 58.78 1.94 58.78C0.83 58.78 0 57.94 0 56.83C0 55.73 0.83 54.89 1.94 54.89C3.04 54.89 3.88 55.82 3.88 56.83Z" fill="#FFCF2D" fill-opacity="1.000000" fill-rule="nonzero"/>
	<path id="Vector" d="M20.41 56.83C20.41 57.94 19.58 58.78 18.47 58.78C17.36 58.78 16.53 57.94 16.53 56.83C16.53 55.73 17.36 54.89 18.47 54.89C19.49 54.89 20.41 55.82 20.41 56.83Z" fill="#FFCF2D" fill-opacity="1.000000" fill-rule="nonzero"/>
	<path id="Vector" d="M36.86 56.83C36.86 57.94 36.03 58.78 34.92 58.78C33.81 58.78 32.98 57.94 32.98 56.83C32.98 55.73 33.81 54.89 34.92 54.89C36.03 54.89 36.86 55.82 36.86 56.83Z" fill="#FFCF2D" fill-opacity="1.000000" fill-rule="nonzero"/>
	<path id="Vector" d="M53.4 56.83C53.4 57.94 52.57 58.78 51.46 58.78C50.35 58.78 49.52 57.94 49.52 56.83C49.52 55.73 50.35 54.89 51.46 54.89C52.57 54.89 53.4 55.82 53.4 56.83Z" fill="#FFCF2D" fill-opacity="1.000000" fill-rule="nonzero"/>
	<path id="Vector" d="M69.93 56.83C69.93 57.94 69.1 58.78 68 58.78C66.89 58.78 66.05 57.94 66.05 56.83C66.05 55.73 66.89 54.89 68 54.89C69.01 54.89 69.93 55.82 69.93 56.83Z" fill="#FFCF2D" fill-opacity="1.000000" fill-rule="nonzero"/>
	<path id="Vector" d="M86.47 56.83C86.47 57.94 85.64 58.78 84.53 58.78C83.42 58.78 82.59 57.94 82.59 56.83C82.59 55.73 83.42 54.89 84.53 54.89C85.64 54.89 86.47 55.82 86.47 56.83Z" fill="#FFCF2D" fill-opacity="1.000000" fill-rule="nonzero"/>
	<path id="Vector" d="M102.92 56.83C102.92 57.94 102.09 58.78 100.98 58.78C99.87 58.78 99.04 57.94 99.04 56.83C99.04 55.73 99.87 54.89 100.98 54.89C102.09 54.89 102.92 55.82 102.92 56.83Z" fill="#FFCF2D" fill-opacity="1.000000" fill-rule="nonzero"/>
	<path id="Vector" d="M119.46 56.83C119.46 57.94 118.63 58.78 117.52 58.78C116.41 58.78 115.58 57.94 115.58 56.83C115.58 55.73 116.41 54.89 117.52 54.89C118.63 54.89 119.46 55.82 119.46 56.83Z" fill="#FFCF2D" fill-opacity="1.000000" fill-rule="nonzero"/>
	<path id="Vector" d="M136 56.83C136 57.94 135.16 58.78 134.06 58.78C132.95 58.78 132.12 57.94 132.12 56.83C132.12 55.73 132.95 54.89 134.06 54.89C135.07 54.89 136 55.82 136 56.83Z" fill="#FFCF2D" fill-opacity="1.000000" fill-rule="nonzero"/>
	<path id="Vector" d="M3.88 70.6C3.88 71.71 3.04 72.55 1.94 72.55C0.83 72.55 0 71.71 0 70.6C0 69.5 0.83 68.66 1.94 68.66C3.04 68.66 3.88 69.5 3.88 70.6Z" fill="#FFCF2D" fill-opacity="1.000000" fill-rule="nonzero"/>
	<path id="Vector" d="M20.41 70.6C20.41 71.71 19.58 72.55 18.47 72.55C17.36 72.55 16.53 71.71 16.53 70.6C16.53 69.5 17.36 68.66 18.47 68.66C19.49 68.66 20.41 69.5 20.41 70.6Z" fill="#FFCF2D" fill-opacity="1.000000" fill-rule="nonzero"/>
	<path id="Vector" d="M36.86 70.6C36.86 71.71 36.03 72.55 34.92 72.55C33.81 72.55 32.98 71.71 32.98 70.6C32.98 69.5 33.81 68.66 34.92 68.66C36.03 68.66 36.86 69.5 36.86 70.6Z" fill="#FFCF2D" fill-opacity="1.000000" fill-rule="nonzero"/>
	<path id="Vector" d="M53.4 70.6C53.4 71.68 52.53 72.55 51.46 72.55C50.39 72.55 49.52 71.68 49.52 70.6C49.52 69.53 50.39 68.66 51.46 68.66C52.53 68.66 53.4 69.53 53.4 70.6Z" fill="#FFCF2D" fill-opacity="1.000000" fill-rule="evenodd"/>
	<path id="Vector" d="M69.93 70.6C69.93 71.71 69.1 72.55 68 72.55C66.89 72.55 66.05 71.71 66.05 70.6C66.05 69.5 66.89 68.66 68 68.66C69.01 68.66 69.93 69.5 69.93 70.6Z" fill="#FFCF2D" fill-opacity="1.000000" fill-rule="nonzero"/>
	<path id="Vector" d="M86.47 70.6C86.47 71.71 85.64 72.55 84.53 72.55C83.42 72.55 82.59 71.71 82.59 70.6C82.59 69.5 83.42 68.66 84.53 68.66C85.64 68.66 86.47 69.5 86.47 70.6Z" fill="#FFCF2D" fill-opacity="1.000000" fill-rule="nonzero"/>
	<path id="Vector" d="M102.92 70.6C102.92 71.71 102.09 72.55 100.98 72.55C99.87 72.55 99.04 71.71 99.04 70.6C99.04 69.5 99.87 68.66 100.98 68.66C102.09 68.66 102.92 69.5 102.92 70.6Z" fill="#FFCF2D" fill-opacity="1.000000" fill-rule="nonzero"/>
	<path id="Vector" d="M119.46 70.6C119.46 71.68 118.59 72.55 117.52 72.55C116.45 72.55 115.58 71.68 115.58 70.6C115.58 69.53 116.45 68.66 117.52 68.66C118.59 68.66 119.46 69.53 119.46 70.6Z" fill="#FFCF2D" fill-opacity="1.000000" fill-rule="evenodd"/>
	<path id="Vector" d="M136 70.6C136 71.71 135.16 72.55 134.06 72.55C132.95 72.55 132.12 71.71 132.12 70.6C132.12 69.5 132.95 68.66 134.06 68.66C135.07 68.66 136 69.5 136 70.6Z" fill="#FFCF2D" fill-opacity="1.000000" fill-rule="nonzero"/>
	<path id="Vector" d="M3.88 84.38C3.88 85.49 3.04 86.32 1.94 86.32C0.83 86.32 0 85.49 0 84.38C0 83.27 0.83 82.44 1.94 82.44C3.04 82.44 3.88 83.27 3.88 84.38Z" fill="#FFCF2D" fill-opacity="1.000000" fill-rule="nonzero"/>
	<path id="Vector" d="M20.41 84.38C20.41 85.49 19.58 86.32 18.47 86.32C17.36 86.32 16.53 85.49 16.53 84.38C16.53 83.27 17.36 82.44 18.47 82.44C19.49 82.44 20.41 83.27 20.41 84.38Z" fill="#FFCF2D" fill-opacity="1.000000" fill-rule="nonzero"/>
	<path id="Vector" d="M36.86 84.38C36.86 85.49 36.03 86.32 34.92 86.32C33.81 86.32 32.98 85.49 32.98 84.38C32.98 83.27 33.81 82.44 34.92 82.44C36.03 82.44 36.86 83.27 36.86 84.38Z" fill="#FFCF2D" fill-opacity="1.000000" fill-rule="nonzero"/>
	<path id="Vector" d="M53.4 84.38C53.4 85.49 52.57 86.32 51.46 86.32C50.35 86.32 49.52 85.49 49.52 84.38C49.52 83.27 50.35 82.44 51.46 82.44C52.57 82.44 53.4 83.27 53.4 84.38Z" fill="#FFCF2D" fill-opacity="1.000000" fill-rule="nonzero"/>
	<path id="Vector" d="M69.93 84.38C69.93 85.49 69.1 86.32 68 86.32C66.89 86.32 66.05 85.49 66.05 84.38C66.05 83.27 66.89 82.44 68 82.44C69.01 82.44 69.93 83.27 69.93 84.38Z" fill="#FFCF2D" fill-opacity="1.000000" fill-rule="nonzero"/>
	<path id="Vector" d="M86.47 84.38C86.47 85.49 85.64 86.32 84.53 86.32C83.42 86.32 82.59 85.49 82.59 84.38C82.59 83.27 83.42 82.44 84.53 82.44C85.64 82.44 86.47 83.27 86.47 84.38Z" fill="#FFCF2D" fill-opacity="1.000000" fill-rule="nonzero"/>
	<path id="Vector" d="M102.92 84.38C102.92 85.49 102.09 86.32 100.98 86.32C99.87 86.32 99.04 85.49 99.04 84.38C99.04 83.27 99.87 82.44 100.98 82.44C102.09 82.44 102.92 83.27 102.92 84.38Z" fill="#FFCF2D" fill-opacity="1.000000" fill-rule="nonzero"/>
	<path id="Vector" d="M119.46 84.38C119.46 85.49 118.63 86.32 117.52 86.32C116.41 86.32 115.58 85.49 115.58 84.38C115.58 83.27 116.41 82.44 117.52 82.44C118.63 82.44 119.46 83.27 119.46 84.38Z" fill="#FFCF2D" fill-opacity="1.000000" fill-rule="nonzero"/>
	<path id="Vector" d="M136 84.38C136 85.49 135.16 86.32 134.06 86.32C132.95 86.32 132.12 85.49 132.12 84.38C132.12 83.27 132.95 82.44 134.06 82.44C135.07 82.44 136 83.27 136 84.38Z" fill="#FFCF2D" fill-opacity="1.000000" fill-rule="nonzero"/>
	<path id="Vector" d="M3.88 98.05C3.88 99.16 3.04 100 1.94 100C0.83 100 0 99.16 0 98.05C0 96.95 0.83 96.11 1.94 96.11C3.04 96.11 3.88 97.04 3.88 98.05Z" fill="#FFCF2D" fill-opacity="1.000000" fill-rule="nonzero"/>
	<path id="Vector" d="M20.41 98.05C20.41 99.16 19.58 100 18.47 100C17.36 100 16.53 99.16 16.53 98.05C16.53 96.95 17.36 96.11 18.47 96.11C19.49 96.11 20.41 97.04 20.41 98.05Z" fill="#FFCF2D" fill-opacity="1.000000" fill-rule="nonzero"/>
	<path id="Vector" d="M36.86 98.05C36.86 99.16 36.03 100 34.92 100C33.81 100 32.98 99.16 32.98 98.05C32.98 96.95 33.81 96.11 34.92 96.11C36.03 96.11 36.86 97.04 36.86 98.05Z" fill="#FFCF2D" fill-opacity="1.000000" fill-rule="nonzero"/>
	<path id="Vector" d="M53.4 98.05C53.4 99.16 52.57 100 51.46 100C50.35 100 49.52 99.16 49.52 98.05C49.52 96.95 50.35 96.11 51.46 96.11C52.57 96.11 53.4 97.04 53.4 98.05Z" fill="#FFCF2D" fill-opacity="1.000000" fill-rule="nonzero"/>
	<path id="Vector" d="M69.93 98.05C69.93 99.16 69.1 100 68 100C66.89 100 66.05 99.16 66.05 98.05C66.05 96.95 66.89 96.11 68 96.11C69.01 96.11 69.93 97.04 69.93 98.05Z" fill="#FFCF2D" fill-opacity="1.000000" fill-rule="nonzero"/>
	<path id="Vector" d="M86.47 98.05C86.47 99.16 85.64 100 84.53 100C83.42 100 82.59 99.16 82.59 98.05C82.59 96.95 83.42 96.11 84.53 96.11C85.64 96.11 86.47 97.04 86.47 98.05Z" fill="#FFCF2D" fill-opacity="1.000000" fill-rule="nonzero"/>
	<path id="Vector" d="M102.92 98.05C102.92 99.16 102.09 100 100.98 100C99.87 100 99.04 99.16 99.04 98.05C99.04 96.95 99.87 96.11 100.98 96.11C102.09 96.11 102.92 97.04 102.92 98.05Z" fill="#FFCF2D" fill-opacity="1.000000" fill-rule="nonzero"/>
	<path id="Vector" d="M119.46 98.05C119.46 99.16 118.63 100 117.52 100C116.41 100 115.58 99.16 115.58 98.05C115.58 96.95 116.41 96.11 117.52 96.11C118.63 96.11 119.46 97.04 119.46 98.05Z" fill="#FFCF2D" fill-opacity="1.000000" fill-rule="nonzero"/>
	<path id="Vector" d="M136 98.05C136 99.16 135.16 100 134.06 100C132.95 100 132.12 99.16 132.12 98.05C132.12 96.95 132.95 96.11 134.06 96.11C135.07 96.11 136 97.04 136 98.05Z" fill="#FFCF2D" fill-opacity="1.000000" fill-rule="nonzero"/>
</svg>
