<svg width="14.354004" height="14.333984" viewBox="0 0 14.354 14.334" fill="none" xmlns="http://www.w3.org/2000/svg" xmlns:xlink="http://www.w3.org/1999/xlink">
	<desc>
			Created with Pixso.
	</desc>
	<defs/>
	<path id="shape (Stroke)" d="M8.62 1.33C8.52 1.33 8.44 1.38 8.39 1.46L8.39 1.47L5.33 6.42L5.33 13L11.05 13C11.18 13 11.28 12.91 11.31 12.79L11.31 12.78L13.01 6.14C13.04 5.98 12.92 5.83 12.75 5.83L10.16 5.83C9.73 5.83 9.29 5.68 8.97 5.37C8.63 5.04 8.48 4.57 8.58 4.07L9.06 1.64C9.09 1.48 8.96 1.33 8.8 1.33L8.62 1.33ZM4 13L4 6.9L1.63 6.9C1.49 6.9 1.37 7.02 1.37 7.16L1.33 12.73C1.33 12.88 1.44 13 1.59 13L4 13ZM4.29 5.57L7.24 0.78C7.53 0.29 8.05 0 8.62 0L8.8 0C9.8 0 10.56 0.91 10.36 1.9L9.88 4.33C9.88 4.37 9.88 4.39 9.88 4.39C9.88 4.4 9.89 4.41 9.9 4.42C9.93 4.44 10.01 4.5 10.16 4.5L12.75 4.5C13.77 4.5 14.53 5.44 14.31 6.44L14.31 6.45L12.61 13.09C12.44 13.82 11.8 14.33 11.05 14.33L1.59 14.33C0.7 14.33 -0.01 13.61 0 12.72L0.04 7.15C0.04 6.27 0.76 5.57 1.63 5.57L4.29 5.57Z" fill="#9A9CA5" fill-opacity="1.000000" fill-rule="evenodd"/>
</svg>
