<svg width="18.333332" height="18.333008" viewBox="0 0 18.3333 18.333" fill="none" xmlns="http://www.w3.org/2000/svg" xmlns:xlink="http://www.w3.org/1999/xlink">
	<desc>
			Created with Pixso.
	</desc>
	<defs/>
	<path id="Vector" d="M2.08 0C0.93 0 0 0.93 0 2.08L0 6.25C0 7.4 0.93 8.33 2.08 8.33L16.25 8.33C17.4 8.33 18.33 7.4 18.33 6.25L18.33 2.08C18.33 0.93 17.4 0 16.25 0L2.08 0ZM1.66 2.08C1.66 1.85 1.85 1.66 2.08 1.66L16.25 1.66C16.48 1.66 16.66 1.85 16.66 2.08L16.66 6.25C16.66 6.48 16.48 6.66 16.25 6.66L2.08 6.66C1.85 6.66 1.66 6.48 1.66 6.25L1.66 2.08ZM2.08 10C0.93 10 0 10.93 0 12.08L0 16.25C0 17.4 0.93 18.33 2.08 18.33L16.25 18.33C17.4 18.33 18.33 17.4 18.33 16.25L18.33 12.08C18.33 10.93 17.4 10 16.25 10L2.08 10ZM1.66 12.08C1.66 11.85 1.85 11.66 2.08 11.66L16.25 11.66C16.48 11.66 16.66 11.85 16.66 12.08L16.66 16.25C16.66 16.48 16.48 16.66 16.25 16.66L2.08 16.66C1.85 16.66 1.66 16.48 1.66 16.25L1.66 12.08Z" fill="#FF3F3A" fill-opacity="1.000000" fill-rule="evenodd"/>
</svg>
