<svg width="14.666992" height="14.666016" viewBox="0 0 14.667 14.666" fill="none" xmlns="http://www.w3.org/2000/svg" xmlns:xlink="http://www.w3.org/1999/xlink">
	<desc>
			Created with Pixso.
	</desc>
	<defs/>
	<path id="Vector" d="M7.03 0.07C7.22 -0.03 7.44 -0.03 7.63 0.07L14.29 3.4C14.52 3.51 14.66 3.74 14.66 4C14.66 4.25 14.52 4.48 14.29 4.59L7.63 7.92C7.44 8.02 7.22 8.02 7.03 7.92L0.36 4.59C0.14 4.48 0 4.25 0 4C0 3.74 0.14 3.51 0.36 3.4L7.03 0.07ZM2.15 4L7.33 6.58L12.5 4L7.33 1.41L2.15 4ZM0.07 7.03C0.23 6.7 0.63 6.57 0.96 6.73L7.33 9.92L13.7 6.73C14.03 6.57 14.43 6.7 14.59 7.03C14.76 7.36 14.62 7.76 14.29 7.92L7.63 11.26C7.44 11.35 7.22 11.35 7.03 11.26L0.36 7.92C0.03 7.76 -0.1 7.36 0.07 7.03ZM0.96 10.07C0.63 9.9 0.23 10.03 0.07 10.36C-0.1 10.69 0.03 11.09 0.36 11.26L7.03 14.59C7.22 14.68 7.44 14.68 7.63 14.59L14.29 11.26C14.62 11.09 14.76 10.69 14.59 10.36C14.43 10.03 14.03 9.9 13.7 10.07L7.33 13.25L0.96 10.07Z" fill="#9A9CA5" fill-opacity="1.000000" fill-rule="evenodd"/>
</svg>
