<svg width="14.333496" height="11.333984" viewBox="0 0 14.3335 11.334" fill="none" xmlns="http://www.w3.org/2000/svg" xmlns:xlink="http://www.w3.org/1999/xlink">
	<desc>
			Created with Pixso.
	</desc>
	<defs/>
	<path id="Union" d="M14.33 9.33L14.33 2C14.33 0.89 13.43 0 12.33 0L2 0C0.89 0 0 0.89 0 2L0 9.33C0 10.43 0.89 11.33 2 11.33L12.33 11.33C13.43 11.33 14.33 10.43 14.33 9.33ZM13 3.5L13 9.33C13 9.7 12.7 10 12.33 10L2 10C1.63 10 1.33 9.7 1.33 9.33L1.33 3.5L6.04 6.7C6.72 7.16 7.61 7.16 8.29 6.7L13 3.5ZM12.99 1.89C12.94 1.57 12.66 1.33 12.33 1.33L2 1.33C1.66 1.33 1.38 1.57 1.34 1.89L6.79 5.6C7.01 5.75 7.31 5.75 7.54 5.6L12.99 1.89Z" fill="#FFFFFF" fill-opacity="1.000000" fill-rule="evenodd"/>
</svg>
