<svg width="14.333328" height="14.333008" viewBox="0 0 14.3333 14.333" fill="none" xmlns="http://www.w3.org/2000/svg" xmlns:xlink="http://www.w3.org/1999/xlink">

	<defs/>
	<path id="Vector (Stroke)" d="M6.41 1.33C3.6 1.33 1.33 3.6 1.33 6.41C1.33 9.22 3.6 11.5 6.41 11.5C7.81 11.5 9.08 10.93 10 10.01C10.93 9.09 11.5 7.82 11.5 6.41C11.5 3.6 9.22 1.33 6.41 1.33ZM0 6.41C0 2.87 2.87 0 6.41 0C9.96 0 12.83 2.87 12.83 6.41C12.83 7.94 12.29 9.35 11.39 10.46L14.13 13.19C14.39 13.45 14.39 13.87 14.13 14.13C13.87 14.39 13.45 14.39 13.19 14.13L10.45 11.4C9.35 12.29 7.94 12.83 6.41 12.83C2.87 12.83 0 9.96 0 6.41Z" fill="#9A9CA5" fill-opacity="1.000000" fill-rule="evenodd"/>
</svg>
