<svg width="9.333496" height="14.771484" viewBox="0 0 9.3335 14.7715" fill="none" xmlns="http://www.w3.org/2000/svg" xmlns:xlink="http://www.w3.org/1999/xlink">
	<desc>
			Created with Pixso.
	</desc>
	<defs/>
	<path id="Rectangle (Stroke)" d="M2.33 1.33C1.78 1.33 1.33 1.78 1.33 2.33L1.33 12.43C1.33 12.99 1.78 13.43 2.33 13.43L7 13.43C7.55 13.43 8 12.99 8 12.43L8 2.33C8 1.78 7.55 1.33 7 1.33L6.94 1.33L6.78 1.72C6.67 1.97 6.43 2.13 6.16 2.13L3.16 2.13C2.89 2.13 2.65 1.97 2.55 1.72L2.38 1.33L2.33 1.33ZM0 2.33C0 1.04 1.04 0 2.33 0L7 0C8.28 0 9.33 1.04 9.33 2.33L9.33 12.43C9.33 13.72 8.28 14.77 7 14.77L2.33 14.77C1.04 14.77 0 13.72 0 12.43L0 2.33Z" fill="#FFFFFF" fill-opacity="1.000000" fill-rule="evenodd"/>
</svg>
